<svg width="703" height="300" viewBox="0 0 703 300" fill="none" xmlns="http://www.w3.org/2000/svg">
<mask id="mask0_100_121" style="mask-type:luminance" maskUnits="userSpaceOnUse" x="0" y="0" width="703" height="300">
<path d="M703 0H0V300H703V0Z" fill="white"/>
</mask>
<g mask="url(#mask0_100_121)">
<g filter="url(#filter0_dddd_100_121)">
<mask id="mask1_100_121" style="mask-type:alpha" maskUnits="userSpaceOnUse" x="-1516" y="-1499" width="2262" height="2145">
<g style="mix-blend-mode:screen">
<path d="M742.521 234.453L-1136.53 -1496.57C-1139.78 -1499.56 -1144.84 -1499.36 -1147.83 -1496.11L-1513.64 -1099.02C-1516.63 -1095.77 -1516.42 -1090.71 -1513.17 -1087.72L365.875 643.307C369.125 646.301 374.186 646.093 377.18 642.844L742.985 245.757C745.978 242.508 745.771 237.447 742.521 234.453Z" fill="#D9D9D9"/>
</g>
</mask>
<g mask="url(#mask1_100_121)">
<path d="M625.718 169.827C707.032 244.735 709.712 374.107 631.704 458.786C553.696 543.465 424.539 551.385 343.225 476.477C305.872 442.066 285.114 396.162 281.147 348.378C274.337 346.044 267.762 342.885 261.57 338.891C225.157 365.85 174.7 364.965 141.431 334.317C125.865 319.977 116.486 301.352 113.358 281.648C101.746 277.396 90.815 270.873 81.22 262.034C73.926 255.315 67.902 247.716 63.152 239.526C21.636 273.173 -38.0616 273.257 -76.995 237.391C-94.9161 220.882 -105.605 199.364 -108.984 176.642C-112.631 173.943 -116.168 171.026 -119.576 167.886C-161.148 129.588 -171.518 69.681 -150.055 18.6975C-156.362 15.0826 -162.364 10.7135 -167.935 5.58203C-194.781 -19.1497 -204.83 -55.3187 -197.525 -88.671C-205.04 -92.4912 -212.143 -97.378 -218.621 -103.346C-231.12 -114.861 -239.8 -129.021 -244.632 -144.304C-252.308 -152.283 -257.674 -161.755 -260.71 -171.881C-292.99 -163.399 -328.132 -170.591 -353.782 -194.22C-376.57 -215.213 -387.041 -244.735 -385.019 -274.109C-407.067 -273.185 -429.156 -280.477 -446.323 -296.291C-471.899 -319.853 -479.519 -355.852 -468.84 -387.848C-480.803 -390.215 -492.19 -395.739 -501.705 -404.505C-502.156 -404.92 -502.599 -405.341 -503.036 -405.765C-540.637 -378.074 -593.657 -379.869 -629.154 -412.57C-644.896 -427.072 -654.862 -445.507 -658.941 -465C-705.478 -450.556 -757.24 -459.915 -794.554 -494.29C-803.138 -502.198 -810.463 -510.978 -816.529 -520.386C-832.122 -524.551 -846.862 -532.382 -859.435 -543.965C-894.157 -575.951 -901.733 -626.739 -881.591 -668.655C-895.912 -688.068 -898.757 -713.768 -889.93 -736.454C-929.262 -715.955 -977.816 -720.307 -1011.15 -751.015C-1030.05 -768.429 -1040.91 -791.416 -1043.63 -815.509C-1096.12 -814.23 -1148.44 -832.071 -1189.32 -869.725C-1275.21 -948.857 -1278.04 -1085.52 -1195.64 -1174.98C-1113.23 -1264.43 -976.793 -1272.8 -890.895 -1193.66C-813.01 -1121.91 -803.418 -1002.87 -863.734 -914.597C-863.132 -914.067 -862.533 -913.53 -861.94 -912.984C-825.052 -879.002 -818.803 -823.799 -843.88 -780.558C-820.072 -788.599 -793.251 -784.1 -774.05 -766.412C-763.083 -756.308 -756.201 -743.376 -753.445 -729.598C-753.373 -729.579 -753.302 -729.559 -753.23 -729.54C-702.114 -754.068 -640.343 -747.537 -597.563 -708.126C-562.775 -676.079 -548.629 -629.736 -555.452 -585.065C-533.406 -583.781 -511.675 -575.174 -494.195 -559.07C-483.963 -549.644 -476.173 -538.556 -470.851 -526.597C-447.492 -533.835 -421.518 -529.13 -402.79 -511.878C-385.664 -496.101 -378.499 -473.424 -381.454 -451.403C-360.68 -451.386 -340.122 -444.051 -323.938 -429.142C-307.368 -413.878 -298.335 -393.393 -296.932 -372.158C-267.023 -377.486 -235.593 -369.627 -212.116 -347.999C-190.166 -327.779 -179.643 -299.644 -180.705 -271.352C-147.005 -283.715 -108.509 -277.784 -81.1461 -252.576C-54.0185 -227.585 -44.8768 -190.139 -54.0396 -155.782C-46.5655 -151.858 -39.476 -146.907 -32.9751 -140.918C-11.3839 -121.028 -0.659026 -93.7397 -1.08643 -66.4688C23.52 -62.7348 47.0919 -52.0169 66.5179 -34.121C103.54 -0.0156746 115.814 51.2271 102.901 98.0439C140.795 75.7649 189.235 78.9369 222.048 109.165C241.866 127.421 252.313 152.168 253.272 177.627C255.835 178.947 258.347 180.397 260.798 181.978C288.75 161.284 324.977 156.997 355.353 169.986C434.096 102.12 550.42 100.46 625.718 169.827Z" fill="#2E3048"/>
<path d="M574.038 176.048C652.671 248.488 655.263 373.594 579.826 455.482C504.389 537.37 379.49 545.029 300.857 472.59C264.735 439.314 244.661 394.924 240.825 348.715C234.238 346.458 227.878 343.403 221.889 339.541C186.677 365.608 137.886 364.751 105.715 335.115C90.66 321.246 81.5901 303.233 78.5651 284.177C67.3371 280.065 56.767 273.757 47.489 265.211C40.436 258.713 34.61 251.366 30.017 243.447C-10.1304 275.986 -67.8629 276.069 -105.514 241.384C-122.843 225.42 -133.179 204.613 -136.448 182.642C-139.974 180.032 -143.395 177.21 -146.691 174.174C-186.892 137.139 -196.921 79.2079 -176.168 29.9054C-182.267 26.4093 -188.073 22.1844 -193.461 17.2213C-219.424 -6.69649 -229.141 -41.676 -222.075 -73.9305C-229.341 -77.6247 -236.209 -82.3498 -242.474 -88.1204C-254.56 -99.2544 -262.953 -112.945 -267.626 -127.722C-275.051 -135.438 -280.241 -144.6 -283.177 -154.393C-314.392 -146.193 -348.373 -153.148 -373.176 -175.997C-395.213 -196.298 -405.34 -224.848 -403.385 -253.254C-424.706 -252.36 -446.068 -259.411 -462.669 -274.705C-487.402 -297.488 -494.77 -332.298 -484.446 -363.239C-496.014 -365.528 -507.026 -370.87 -516.227 -379.346C-516.663 -379.748 -517.092 -380.156 -517.515 -380.567C-553.877 -353.794 -605.144 -355.532 -639.468 -387.152C-654.692 -401.176 -664.329 -419.003 -668.274 -437.854C-713.278 -423.884 -763.334 -432.934 -799.42 -466.176C-807.723 -473.825 -814.808 -482.319 -820.675 -491.42C-835.753 -495.447 -850.006 -503.02 -862.164 -514.22C-895.74 -545.152 -903.066 -594.263 -883.589 -634.797C-897.437 -653.569 -900.187 -678.419 -891.652 -700.357C-929.689 -680.533 -976.643 -684.742 -1008.88 -714.438C-1027.16 -731.279 -1037.66 -753.51 -1040.29 -776.811C-1091.05 -775.575 -1141.64 -792.827 -1181.17 -829.239C-1264.23 -905.763 -1266.97 -1037.92 -1187.28 -1124.43C-1107.59 -1210.93 -975.651 -1219.02 -892.584 -1142.5C-817.265 -1073.11 -807.99 -957.988 -866.32 -872.629C-865.738 -872.117 -865.159 -871.597 -864.585 -871.069C-828.914 -838.207 -822.87 -784.826 -847.118 -743.01C-824.095 -750.785 -798.16 -746.436 -779.592 -729.331C-768.987 -719.561 -762.333 -707.056 -759.667 -693.734C-759.595 -693.715 -759.522 -693.695 -759.45 -693.676C-710.02 -717.391 -650.29 -711.073 -608.922 -672.964C-575.281 -641.973 -561.602 -597.16 -568.199 -553.962C-546.878 -552.722 -525.863 -544.397 -508.957 -528.824C-499.062 -519.707 -491.527 -508.984 -486.381 -497.417C-463.795 -504.412 -438.68 -499.861 -420.573 -483.18C-404.012 -467.924 -397.084 -445.997 -399.939 -424.704C-379.849 -424.687 -359.969 -417.594 -344.318 -403.176C-328.294 -388.414 -319.56 -368.604 -318.203 -348.069C-289.279 -353.223 -258.885 -345.623 -236.181 -324.708C-214.955 -305.154 -204.779 -277.949 -205.805 -250.59C-173.217 -262.545 -135.991 -256.807 -109.531 -232.431C-83.2962 -208.264 -74.4552 -172.049 -83.3177 -138.824C-76.0907 -135.029 -69.2354 -130.241 -62.9493 -124.45C-42.0705 -105.216 -31.6996 -78.8279 -32.1123 -52.4565C-8.3157 -48.8463 14.4811 -38.4818 33.2679 -21.1747C69.0679 11.8048 80.939 61.3551 68.455 106.627C105.1 85.082 151.943 88.148 183.675 117.38C202.841 135.036 212.944 158.969 213.87 183.592C216.347 184.868 218.776 186.269 221.146 187.797C248.177 167.787 283.209 163.643 312.582 176.204C388.73 110.573 501.221 108.968 574.038 176.048Z" fill="#24263D"/>
<path d="M550.423 240.163C618.466 302.846 620.709 411.103 555.432 481.962C490.155 552.821 382.077 559.449 314.034 496.766C285.668 470.634 268.74 436.582 263.37 400.621C247.417 399.905 231.726 395.151 217.934 386.256C181.522 413.211 131.068 412.326 97.801 381.68C84.557 369.479 75.793 354.176 71.545 337.747C37.005 360.448 -1.12111 364.084 -23.1643 343.777C-32.1574 335.493 -37.3962 324.214 -39.1048 311.299C-68.1919 314.345 -97.9359 305.655 -120.627 284.752C-155.37 252.746 -162.932 201.914 -142.743 159.983C-143.688 159.173 -144.623 158.346 -145.545 157.496C-173.305 131.923 -183.713 94.333 -176.478 58.8669C-196.116 56.3422 -215.172 47.9347 -230.822 33.5183C-262.378 4.44801 -270.725 -40.4247 -254.963 -77.9506C-266.007 -80.5634 -276.474 -85.9133 -285.323 -94.0652C-292.755 -100.912 -298.309 -109.058 -301.976 -117.886C-341.869 -100.918 -388.764 -106.931 -421.641 -137.218C-467.003 -179.006 -468.498 -251.178 -424.98 -298.417C-381.462 -345.657 -309.41 -350.076 -264.048 -308.287C-238.677 -284.915 -227.031 -252.039 -229.304 -219.336C-213.751 -218.538 -198.556 -212.627 -186.409 -201.438C-185.277 -200.394 -184.188 -199.321 -183.142 -198.22C-160.281 -206.357 -134.302 -202.222 -115.787 -185.166C-96.252 -167.17 -90.3746 -139.715 -98.4099 -115.249C-97.5513 -114.511 -96.7015 -113.755 -95.8621 -112.982C-72.4375 -91.4027 -61.802 -61.1161 -64.3232 -31.5903C-39.7256 -31.0823 -15.5119 -22.1385 3.6644 -4.4729C38.408 27.5335 45.97 78.363 25.781 120.295C26.726 121.104 27.661 121.933 28.584 122.782C44.995 137.9 55.341 157.218 59.563 177.814C83.287 170.97 105.765 173.692 120.78 187.524C129.755 195.792 134.991 207.043 136.71 219.925C163.54 210.932 193.219 213.895 217.168 229.34C252.706 203.032 301.621 203.246 334.877 231.765C400.262 183.528 490.741 185.183 550.423 240.163Z" fill="#292B43"/>
</g>
</g>
</g>
<defs>
<filter id="filter0_dddd_100_121" x="-1335.64" y="-1281.95" width="2104.14" height="1947.71" filterUnits="userSpaceOnUse" color-interpolation-filters="sRGB">
<feFlood flood-opacity="0" result="BackgroundImageFix"/>
<feColorMatrix in="SourceAlpha" type="matrix" values="0 0 0 0 0 0 0 0 0 0 0 0 0 0 0 0 0 0 127 0" result="hardAlpha"/>
<feOffset dy="2.0125"/>
<feGaussianBlur stdDeviation="2.3125"/>
<feColorMatrix type="matrix" values="0 0 0 0 0.294118 0 0 0 0 0.301961 0 0 0 0 0.376471 0 0 0 0.02275 0"/>
<feBlend mode="normal" in2="BackgroundImageFix" result="effect1_dropShadow_100_121"/>
<feColorMatrix in="SourceAlpha" type="matrix" values="0 0 0 0 0 0 0 0 0 0 0 0 0 0 0 0 0 0 127 0" result="hardAlpha"/>
<feOffset dy="9.2"/>
<feGaussianBlur stdDeviation="6.5"/>
<feColorMatrix type="matrix" values="0 0 0 0 0.294118 0 0 0 0 0.301961 0 0 0 0 0.376471 0 0 0 0.035 0"/>
<feBlend mode="normal" in2="effect1_dropShadow_100_121" result="effect2_dropShadow_100_121"/>
<feColorMatrix in="SourceAlpha" type="matrix" values="0 0 0 0 0 0 0 0 0 0 0 0 0 0 0 0 0 0 127 0" result="hardAlpha"/>
<feOffset dy="23.2875"/>
<feGaussianBlur stdDeviation="17.4375"/>
<feColorMatrix type="matrix" values="0 0 0 0 0.294118 0 0 0 0 0.301961 0 0 0 0 0.376471 0 0 0 0.04725 0"/>
<feBlend mode="normal" in2="effect2_dropShadow_100_121" result="effect3_dropShadow_100_121"/>
<feColorMatrix in="SourceAlpha" type="matrix" values="0 0 0 0 0 0 0 0 0 0 0 0 0 0 0 0 0 0 127 0" result="hardAlpha"/>
<feOffset dy="46"/>
<feGaussianBlur stdDeviation="40"/>
<feColorMatrix type="matrix" values="0 0 0 0 0.294118 0 0 0 0 0.301961 0 0 0 0 0.376471 0 0 0 0.07 0"/>
<feBlend mode="normal" in2="effect3_dropShadow_100_121" result="effect4_dropShadow_100_121"/>
<feBlend mode="normal" in="SourceGraphic" in2="effect4_dropShadow_100_121" result="shape"/>
</filter>
</defs>
</svg>
