<svg width="121" height="189" viewBox="0 0 121 189" fill="none" xmlns="http://www.w3.org/2000/svg">
<g id="Group">
<path id="Vector" d="M101.13 118.592C100.763 117.613 100.395 116.635 100.085 115.629C96.44 103.665 94.3776 77.9212 93.078 63.0226C90.0832 29.3122 78.4148 1.6674 60.3896 0.661118V0.4375C42.3643 1.41583 30.6959 29.0886 27.7011 62.7711C26.3733 77.6976 24.3391 103.414 20.6945 115.377C20.3554 116.384 20.0164 117.39 19.6491 118.34C-36.4608 147.271 46.7717 151.072 60.3896 151.268V151.492C74.0074 151.296 157.268 147.494 101.13 118.564V118.592Z" fill="#20223A"/>
<g id="Group_2">
<path id="Vector_2" d="M86.1561 163.019C91.072 154.204 94.6319 141.801 94.6319 134.851C94.6319 133.099 94.4624 131.291 94.1798 129.568C93.191 123.522 89.8854 119.425 86.2126 119.453C86.1843 119.453 86.1561 119.453 86.1278 119.453C82.4267 119.453 79.1494 123.522 78.1605 129.568C77.878 131.319 77.7085 133.099 77.7085 134.851C77.7085 141.801 81.2683 154.176 86.1843 163.019H86.1561Z" fill="#C11C79"/>
<path id="Vector_3" d="M86.156 145.248C88.8118 140.474 90.733 133.749 90.733 129.992C90.733 129.031 90.6482 128.071 90.507 127.138C89.9702 123.861 88.1902 121.657 86.1843 121.657H86.1278C84.1218 121.657 82.3419 123.861 81.8051 127.138C81.6356 128.071 81.5791 129.059 81.5791 129.992C81.5791 133.749 83.5003 140.474 86.156 145.248Z" fill="#FF438B"/>
</g>
<g id="Group_3">
<path id="Vector_4" d="M34.4257 164.346C39.3417 155.532 42.9016 143.129 42.9016 136.178C42.9016 134.427 42.732 132.619 42.4495 130.895C41.4607 124.849 38.1551 120.752 34.4823 120.781C34.454 120.781 34.4257 120.781 34.3975 120.781C30.6964 120.781 27.4191 124.849 26.4302 130.895C26.1477 132.647 25.9782 134.427 25.9782 136.178C25.9782 143.129 29.538 155.503 34.454 164.346H34.4257Z" fill="#C11C79"/>
<path id="Vector_5" d="M34.4255 145.248C37.0813 140.473 39.0025 133.749 39.0025 129.991C39.0025 129.03 38.9177 128.07 38.7482 127.138C38.2114 123.86 36.4315 121.656 34.4255 121.656C34.4255 121.656 34.3973 121.656 34.369 121.656C32.3631 121.656 30.5832 123.86 30.0464 127.138C29.8768 128.07 29.7921 129.059 29.7921 129.991C29.7921 133.749 31.7133 140.473 34.369 145.248H34.4255Z" fill="#FF438B"/>
</g>
<g id="Group_4">
<path id="Vector_6" d="M60.2767 188.502C68.131 175.534 73.8098 157.368 73.8098 147.168C73.8098 144.569 73.5555 141.942 73.1035 139.399C71.4931 130.528 66.2381 124.51 60.3332 124.538C60.2767 124.538 60.2485 124.538 60.192 124.538C54.2872 124.51 49.0321 130.499 47.4217 139.399C46.9697 141.942 46.7154 144.569 46.7154 147.168C46.7154 157.368 52.3942 175.562 60.2485 188.502H60.2767Z" fill="#C11C79"/>
<path id="Vector_7" d="M60.2769 162.707C63.8368 157.028 66.4078 149.033 66.4078 144.54C66.4078 143.41 66.2947 142.252 66.097 141.122C65.3624 137.223 62.9892 134.567 60.3334 134.595H60.2769C57.6212 134.595 55.2197 137.223 54.5134 141.122C54.3156 142.252 54.2026 143.41 54.2026 144.54C54.2026 149.033 56.7736 157 60.3334 162.707H60.2769Z" fill="#FF438B"/>
</g>
<path id="Vector_8" d="M60.4462 4.54876C43.8053 4.54876 34.1429 39.5256 31.9109 65.2074C30.9503 76.3672 29.5659 96.4549 27.8708 105.665C26.8819 111.146 23.4916 120.131 23.2373 120.837C8.06559 130.217 4.534 134.54 5.40983 135.613C5.80537 136.065 11.5972 134.907 18.3496 133.494C23.6046 132.392 29.5377 131.319 33.38 129.398C48.3822 121.939 46.235 106.259 48.806 106.174C51.7443 106.089 49.9926 110.892 52.1681 116.147C55.0781 123.21 62.7064 131.121 80.8164 128.409C75.7874 124.03 74.7138 106.343 77.8781 106.343C80.2513 106.343 78.2736 115.582 88.1056 125.018C97.1182 133.692 115.624 136.263 115.765 135.585C116.387 132.166 103.277 125.244 97.5137 120.922C93.5301 111.514 90.6201 71.2817 89.942 65.0661C86.7777 36.0506 77.6803 4.52051 60.4744 4.52051L60.4462 4.54876Z" fill="#E8E8E8"/>
<path id="Vector_9" d="M60.4463 4.54869C77.6522 4.54869 86.7778 36.0787 89.9139 65.0943C90.5919 71.2817 93.502 111.542 97.4856 120.95C103.249 125.273 116.33 132.166 115.737 135.613C115.737 135.67 115.539 135.726 115.172 135.726C111.979 135.726 96.2142 132.844 88.1057 125.047C78.2737 115.582 80.2514 106.372 77.8782 106.372C74.7139 106.372 75.7875 124.058 80.8165 128.437C78.3302 128.804 76.0418 128.974 73.9228 128.974C60.7005 128.974 54.6827 122.25 52.1682 116.147C50.021 110.92 51.6879 106.174 48.8626 106.174C48.8626 106.174 48.8061 106.174 48.7779 106.174C46.2069 106.259 48.3541 121.939 33.3519 129.398C29.5095 131.319 23.6047 132.364 18.3214 133.494C12.6144 134.709 7.55714 135.726 5.91848 135.726C5.63595 135.726 5.43818 135.698 5.38168 135.613C4.50584 134.568 8.03743 130.217 23.2092 120.837C23.4917 120.102 26.8538 111.146 27.8426 105.665C29.5095 96.4548 30.8939 76.3954 31.8827 65.2073C34.1712 39.4973 43.8054 4.54869 60.4463 4.54869ZM60.4463 0C38.8047 0 29.4813 40.7404 27.3906 64.8118C27.1928 67.185 26.9668 69.9255 26.7125 72.8921C25.8084 83.9671 24.6783 97.7827 23.4069 104.818C22.7289 108.547 20.6664 114.593 19.508 117.757C1.68057 128.945 1.11551 132.421 0.804733 134.314C0.550458 135.839 0.945997 137.337 1.90659 138.495C2.86718 139.653 4.22331 140.247 5.94673 140.247C7.67015 140.247 10.9475 139.682 19.282 137.902L21.2597 137.478C26.2887 136.432 31.5155 135.359 35.3861 133.409C42.6753 129.793 46.5459 124.453 48.7779 119.622C51.7162 125.47 58.5816 133.466 73.9228 133.466C76.296 133.466 78.8388 133.268 81.4663 132.873L89.2641 131.714C98.8135 138.015 111.923 140.218 115.172 140.218C119.41 140.218 120.144 136.743 120.229 136.348C121.19 130.923 114.918 126.883 106.216 121.261C104.408 120.102 102.684 119.001 101.3 118.012C98.4462 109.253 95.9599 81.1701 94.9994 70.2928C94.7733 67.6371 94.5756 65.6029 94.4626 64.5575C92.3436 45.1761 84.8001 0 60.4463 0Z" fill="#20223A"/>
<g id="Group_5">
<path id="Vector_10" d="M49.8226 60.4332C53.0213 60.4332 55.6144 55.9174 55.6144 50.347C55.6144 44.7765 53.0213 40.2607 49.8226 40.2607C46.6239 40.2607 44.0308 44.7765 44.0308 50.347C44.0308 55.9174 46.6239 60.4332 49.8226 60.4332Z" fill="#20223A"/>
<path id="Vector_11" d="M71.2381 60.4332C74.4369 60.4332 77.0299 55.9174 77.0299 50.347C77.0299 44.7765 74.4369 40.2607 71.2381 40.2607C68.0394 40.2607 65.4463 44.7765 65.4463 50.347C65.4463 55.9174 68.0394 60.4332 71.2381 60.4332Z" fill="#20223A"/>
</g>
<path id="Vector_12" opacity="0.2" d="M52.1965 105.213C51.2077 109.705 50.8687 113.265 53.1289 118.096C55.0783 121.712 58.4121 125.272 63.8367 127.278C55.6151 119.085 54.7958 114.508 52.2248 105.213H52.1965Z" fill="#2E3048"/>
<path id="Vector_13" opacity="0.2" d="M34.7077 128.634C36.0638 124.029 37.5329 114.932 37.3352 110.044C37.0809 111.796 32.1084 121.995 32.1084 121.995C32.1084 121.995 26.7121 128.126 19.4794 133.211C24.4519 132.166 29.7917 131.12 33.3515 129.369C33.8318 129.143 34.2839 128.889 34.7077 128.634Z" fill="#2E3048"/>
<path id="Vector_14" opacity="0.2" d="M79.3755 103.32C79.3755 106.767 79.771 113.435 82.9636 118.633C84.1784 120.667 85.8171 122.843 88.0773 125.018C94.7732 131.46 106.724 134.54 112.459 135.415C91.9762 125.273 85.5063 116.74 79.3755 103.32Z" fill="#2E3048"/>
<path id="Vector_15" d="M60.8981 70.7168C62.2244 70.7168 63.2996 69.3507 63.2996 67.6656C63.2996 65.9804 62.2244 64.6143 60.8981 64.6143C59.5718 64.6143 58.4966 65.9804 58.4966 67.6656C58.4966 69.3507 59.5718 70.7168 60.8981 70.7168Z" fill="#20223A"/>
<path id="Vector_16" d="M77.2573 17.2461C72.8216 9.36339 67.2557 4.36255 60.3901 4.36255C54.0049 4.36255 42.1161 11.341 35.0528 45.245C43.5288 29.7057 50.5921 11.341 60.8422 12.556C66.6623 12.556 72.1435 14.223 77.2291 17.2178L77.2573 17.2461Z" fill="#C3C3C8"/>
</g>
</svg>
