<svg width="25" height="24" viewBox="0 0 25 24" fill="none" xmlns="http://www.w3.org/2000/svg">
<path d="M12.3334 2.25C10.405 2.25 8.51995 2.82183 6.91657 3.89317C5.31319 4.96451 4.06351 6.48726 3.32555 8.26884C2.5876 10.0504 2.39452 12.0108 2.77072 13.9021C3.14693 15.7934 4.07553 17.5307 5.43909 18.8943C6.80265 20.2579 8.53993 21.1865 10.4312 21.5627C12.3226 21.9389 14.283 21.7458 16.0645 21.0078C17.8461 20.2699 19.3689 19.0202 20.4402 17.4168C21.5116 15.8134 22.0834 13.9284 22.0834 12C22.0804 9.41505 21.0522 6.93683 19.2244 5.109C17.3965 3.28116 14.9183 2.25298 12.3334 2.25ZM20.5834 12C20.584 12.7608 20.479 13.5181 20.2712 14.25H16.6609C16.8909 12.7588 16.8909 11.2412 16.6609 9.75H20.2712C20.479 10.4819 20.584 11.2392 20.5834 12ZM9.89588 15.75H14.7709C14.2906 17.3237 13.4569 18.7667 12.3334 19.9688C11.2103 18.7664 10.3766 17.3235 9.89588 15.75ZM9.53025 14.25C9.27276 12.7611 9.27276 11.2389 9.53025 9.75H15.144C15.4015 11.2389 15.4015 12.7611 15.144 14.25H9.53025ZM4.08338 12C4.08273 11.2392 4.18779 10.4819 4.39557 9.75H8.00588C7.77588 11.2412 7.77588 12.7588 8.00588 14.25H4.39557C4.18779 13.5181 4.08273 12.7608 4.08338 12ZM14.7709 8.25H9.89588C10.3761 6.67632 11.2099 5.2333 12.3334 4.03125C13.4564 5.23361 14.2901 6.67653 14.7709 8.25ZM19.6768 8.25H16.3374C15.9166 6.70585 15.2072 5.25532 14.2468 3.975C15.4072 4.25375 16.4935 4.7801 17.4314 5.51799C18.3693 6.25588 19.1366 7.18784 19.6806 8.25H19.6768ZM10.4199 3.975C9.45956 5.25532 8.7502 6.70585 8.32932 8.25H4.98619C5.5302 7.18784 6.29744 6.25588 7.23534 5.51799C8.17323 4.7801 9.25959 4.25375 10.4199 3.975ZM4.98619 15.75H8.32932C8.7502 17.2941 9.45956 18.7447 10.4199 20.025C9.25959 19.7463 8.17323 19.2199 7.23534 18.482C6.29744 17.7441 5.5302 16.8122 4.98619 15.75ZM14.2468 20.025C15.2072 18.7447 15.9166 17.2941 16.3374 15.75H19.6806C19.1366 16.8122 18.3693 17.7441 17.4314 18.482C16.4935 19.2199 15.4072 19.7463 14.2468 20.025Z" fill="#E2E0E7"/>
</svg>
