<svg width="25" height="24" viewBox="0 0 25 24" fill="none" xmlns="http://www.w3.org/2000/svg">
<rect width="25" height="24" fill="#1E1E1E"/>
<g id="Home dark connected" clip-path="url(#clip0_0_1)">
<rect width="1728" height="2975" transform="translate(-708 -1823)" fill="#2E3048"/>
<rect id="Rectangle 8" x="-708" y="-1399" width="1728" height="2589" fill="#2E3048"/>
<g id="Ellipse 8" filter="url(#filter0_f_0_1)">
<circle cx="611.461" cy="407.461" r="357.461" fill="#B51C7B" fill-opacity="0.2"/>
</g>
<g id="Frame 427319592">
<g id="Frame 427319591">
<g id="Frame 427319593">
<g id="Frame 427319591_2">
<g id="Frame 427319579">
<rect x="-34.8334" y="-35.5" width="381.667" height="220" rx="7.5" stroke="#4B4D60" stroke-opacity="0.5"/>
<g id="Frame 427319584">
<g id="Frame 4151">
<rect x="-10.8334" y="-11.5" width="47" height="47" rx="23.5" stroke="#4B4D60"/>
<g id="MagnifyingGlass">
<path id="Vector" d="M22.1972 20.4693L17.5032 15.7762C18.8637 14.1428 19.5421 12.0478 19.3973 9.92691C19.2525 7.80604 18.2956 5.82265 16.7257 4.38932C15.1558 2.95599 13.0938 2.18308 10.9685 2.23138C8.84325 2.27968 6.81844 3.14547 5.31527 4.64864C3.8121 6.15181 2.94631 8.17663 2.89801 10.3019C2.84971 12.4271 3.62262 14.4892 5.05594 16.0591C6.48927 17.629 8.47267 18.5859 10.5935 18.7307C12.7144 18.8755 14.8094 18.1971 16.4428 16.8365L21.136 21.5306C21.2057 21.6003 21.2884 21.6556 21.3794 21.6933C21.4705 21.731 21.5681 21.7504 21.6666 21.7504C21.7651 21.7504 21.8627 21.731 21.9538 21.6933C22.0448 21.6556 22.1275 21.6003 22.1972 21.5306C22.2669 21.4609 22.3222 21.3782 22.3599 21.2871C22.3976 21.1961 22.417 21.0985 22.417 21C22.417 20.9014 22.3976 20.8038 22.3599 20.7128C22.3222 20.6218 22.2669 20.539 22.1972 20.4693ZM4.4166 10.5C4.4166 9.16495 4.81248 7.8599 5.55418 6.74987C6.29588 5.63984 7.35008 4.77467 8.58348 4.26378C9.81688 3.75289 11.1741 3.61922 12.4835 3.87967C13.7928 4.14012 14.9956 4.78299 15.9396 5.727C16.8836 6.671 17.5264 7.87374 17.7869 9.18311C18.0473 10.4925 17.9137 11.8497 17.4028 13.0831C16.8919 14.3165 16.0267 15.3707 14.9167 16.1124C13.8067 16.8541 12.5016 17.25 11.1666 17.25C9.37699 17.248 7.66126 16.5362 6.39582 15.2708C5.13038 14.0053 4.41858 12.2896 4.4166 10.5Z" fill="#E2E0E7"/>
</g>
</g>
</g>
</g>
</g>
</g>
</g>
</g>
</g>
<defs>
<filter id="filter0_f_0_1" x="-246" y="-450" width="1714.92" height="1714.92" filterUnits="userSpaceOnUse" color-interpolation-filters="sRGB">
<feFlood flood-opacity="0" result="BackgroundImageFix"/>
<feBlend mode="normal" in="SourceGraphic" in2="BackgroundImageFix" result="shape"/>
<feGaussianBlur stdDeviation="250" result="effect1_foregroundBlur_0_1"/>
</filter>
<clipPath id="clip0_0_1">
<rect width="1728" height="2975" fill="white" transform="translate(-708 -1823)"/>
</clipPath>
</defs>
</svg>
