<svg width="25" height="24" viewBox="0 0 25 24" fill="none" xmlns="http://www.w3.org/2000/svg">
<path d="M14.6972 12.9694C14.6276 12.8996 14.5449 12.8443 14.4538 12.8066C14.3628 12.7688 14.2652 12.7494 14.1666 12.7494C14.0681 12.7494 13.9705 12.7688 13.8794 12.8066C13.7884 12.8443 13.7056 12.8996 13.636 12.9694L11.9166 14.6897L9.97693 12.75L11.6972 11.0306C11.838 10.8899 11.917 10.699 11.917 10.5C11.917 10.301 11.838 10.1101 11.6972 9.96935C11.5565 9.82862 11.3656 9.74956 11.1666 9.74956C10.9676 9.74956 10.7767 9.82862 10.636 9.96935L8.91662 11.6897L7.19724 9.96935C7.05651 9.82862 6.86564 9.74956 6.66662 9.74956C6.46759 9.74956 6.27672 9.82862 6.13599 9.96935C5.99526 10.1101 5.9162 10.301 5.9162 10.5C5.9162 10.699 5.99526 10.8899 6.13599 11.0306L6.7313 11.625L4.54505 13.8103C4.2664 14.0889 4.04537 14.4196 3.89456 14.7836C3.74375 15.1477 3.66613 15.5378 3.66613 15.9319C3.66613 16.3259 3.74375 16.716 3.89456 17.0801C4.04537 17.4441 4.2664 17.7748 4.54505 18.0534L5.04943 18.5569L2.38599 21.2194C2.31631 21.289 2.26103 21.3718 2.22332 21.4628C2.18561 21.5539 2.1662 21.6514 2.1662 21.75C2.1662 21.8485 2.18561 21.9461 2.22332 22.0372C2.26103 22.1282 2.31631 22.2109 2.38599 22.2806C2.52672 22.4213 2.71759 22.5004 2.91662 22.5004C3.01516 22.5004 3.11274 22.481 3.20379 22.4433C3.29483 22.4056 3.37756 22.3503 3.44724 22.2806L6.10974 19.6172L6.61318 20.1215C6.89176 20.4002 7.22251 20.6212 7.58653 20.772C7.95055 20.9228 8.34072 21.0005 8.73474 21.0005C9.12876 21.0005 9.51893 20.9228 9.88295 20.772C10.247 20.6212 10.5777 20.4002 10.8563 20.1215L13.0416 17.9353L13.636 18.5306C13.7057 18.6003 13.7884 18.6556 13.8794 18.6933C13.9705 18.731 14.0681 18.7504 14.1666 18.7504C14.2652 18.7504 14.3627 18.731 14.4538 18.6933C14.5448 18.6556 14.6276 18.6003 14.6972 18.5306C14.7669 18.4609 14.8222 18.3782 14.8599 18.2872C14.8976 18.1961 14.917 18.0985 14.917 18C14.917 17.9014 14.8976 17.8039 14.8599 17.7128C14.8222 17.6218 14.7669 17.539 14.6972 17.4694L12.9769 15.75L14.6972 14.0306C14.767 13.9609 14.8223 13.8782 14.86 13.7872C14.8978 13.6961 14.9172 13.5985 14.9172 13.5C14.9172 13.4014 14.8978 13.3038 14.86 13.2128C14.8223 13.1217 14.767 13.039 14.6972 12.9694ZM9.79505 19.0631C9.51378 19.3442 9.13239 19.5021 8.73474 19.5021C8.33709 19.5021 7.9557 19.3442 7.67443 19.0631L5.6063 16.9922C5.32521 16.7109 5.16731 16.3295 5.16731 15.9319C5.16731 15.5342 5.32521 15.1528 5.6063 14.8715L7.79162 12.6853L11.9813 16.875L9.79505 19.0631ZM22.9472 1.71935C22.8776 1.64962 22.7949 1.5943 22.7038 1.55656C22.6128 1.51882 22.5152 1.49939 22.4166 1.49939C22.3181 1.49939 22.2205 1.51882 22.1294 1.55656C22.0384 1.5943 21.9556 1.64962 21.886 1.71935L19.2235 4.38279L18.7201 3.87842C18.1568 3.31681 17.3939 3.00143 16.5985 3.00143C15.8031 3.00143 15.0402 3.31681 14.4769 3.87842L12.2916 6.06467L11.6972 5.46935C11.5565 5.32862 11.3656 5.24956 11.1666 5.24956C10.9676 5.24956 10.7767 5.32862 10.636 5.46935C10.4953 5.61009 10.4162 5.80096 10.4162 5.99998C10.4162 6.199 10.4953 6.38987 10.636 6.53061L18.136 14.0306C18.2057 14.1003 18.2884 14.1556 18.3794 14.1933C18.4705 14.231 18.5681 14.2504 18.6666 14.2504C18.7652 14.2504 18.8627 14.231 18.9538 14.1933C19.0448 14.1556 19.1276 14.1003 19.1972 14.0306C19.2669 13.9609 19.3222 13.8782 19.3599 13.7872C19.3976 13.6961 19.417 13.5985 19.417 13.5C19.417 13.4014 19.3976 13.3039 19.3599 13.2128C19.3222 13.1218 19.2669 13.039 19.1972 12.9694L18.6019 12.375L20.7882 10.1897C21.0668 9.91108 21.2879 9.58033 21.4387 9.21631C21.5895 8.85229 21.6671 8.46213 21.6671 8.0681C21.6671 7.67408 21.5895 7.28392 21.4387 6.9199C21.2879 6.55587 21.0668 6.22513 20.7882 5.94654L20.2838 5.4431L22.9472 2.7806C23.017 2.71095 23.0723 2.62823 23.11 2.53718C23.1478 2.44614 23.1672 2.34854 23.1672 2.24998C23.1672 2.15142 23.1478 2.05382 23.11 1.96277C23.0723 1.87173 23.017 1.78901 22.9472 1.71935ZM19.7269 9.1256L17.5416 11.3147L13.3519 7.12498L15.5382 4.93967C15.8195 4.65858 16.2008 4.50067 16.5985 4.50067C16.9961 4.50067 17.3775 4.65858 17.6588 4.93967L19.7269 7.00217C19.867 7.14155 19.9781 7.30721 20.0539 7.48966C20.1297 7.6721 20.1687 7.86772 20.1687 8.06529C20.1687 8.26286 20.1297 8.45849 20.0539 8.64093C19.9781 8.82337 19.867 8.98904 19.7269 9.12842V9.1256Z" fill="#E2E0E7"/>
</svg>
