<svg width="24" height="24" viewBox="0 0 24 24" fill="none" xmlns="http://www.w3.org/2000/svg">
<path d="M20.6503 14.8631C20.5434 14.7957 20.4211 14.7564 20.2949 14.7488C20.1687 14.7413 20.0426 14.7658 19.9284 14.82C19.6427 14.9552 19.3273 15.0159 19.0118 14.9965C18.6963 14.9771 18.3908 14.8782 18.1237 14.7091C17.8566 14.54 17.6366 14.3061 17.4842 14.0291C17.3317 13.7521 17.2518 13.4411 17.2518 13.125C17.2518 12.8089 17.3317 12.4979 17.4842 12.2209C17.6366 11.944 17.8566 11.7101 18.1237 11.5409C18.3908 11.3718 18.6963 11.2729 19.0118 11.2535C19.3273 11.2342 19.6427 11.2949 19.9284 11.43C20.0428 11.4843 20.169 11.5087 20.2953 11.5011C20.4216 11.4934 20.544 11.4539 20.6509 11.3863C20.7579 11.3186 20.846 11.225 20.907 11.1141C20.9681 11.0033 21 10.8788 21 10.7522V6.75002C21 6.35219 20.842 5.97066 20.5607 5.68936C20.2794 5.40805 19.8978 5.25002 19.5 5.25002H16.1044C16.1183 5.12551 16.1252 5.00031 16.125 4.87502C16.1243 4.41407 16.0295 3.95812 15.8464 3.53511C15.6632 3.11211 15.3956 2.73095 15.06 2.41502C14.5953 1.97853 14.0164 1.68261 13.3904 1.56154C12.7644 1.44046 12.1169 1.49918 11.5229 1.73089C10.929 1.9626 10.4127 2.35782 10.0341 2.87079C9.65545 3.38376 9.42986 3.9935 9.38344 4.62939C9.36903 4.83624 9.37342 5.04396 9.39656 5.25002H6C5.60217 5.25002 5.22064 5.40805 4.93934 5.68936C4.65803 5.97066 4.5 6.35219 4.5 6.75002V9.77064C4.37549 9.75669 4.25029 9.7498 4.125 9.75002C3.66406 9.75076 3.20813 9.8456 2.78513 10.0287C2.36213 10.2119 1.98097 10.4794 1.665 10.815C1.34676 11.1512 1.10172 11.5497 0.945355 11.9854C0.788991 12.4211 0.724705 12.8845 0.756562 13.3463C0.810307 14.1594 1.15582 14.9259 1.72957 15.5046C2.30331 16.0833 3.06671 16.4355 3.87937 16.4963C4.08621 16.5111 4.29398 16.5067 4.5 16.4831V19.5C4.5 19.8978 4.65803 20.2794 4.93934 20.5607C5.22064 20.842 5.60217 21 6 21H19.5C19.8978 21 20.2794 20.842 20.5607 20.5607C20.842 20.2794 21 19.8978 21 19.5V15.4978C21.0001 15.3711 20.968 15.2464 20.9069 15.1355C20.8457 15.0245 20.7575 14.9308 20.6503 14.8631ZM19.5 19.5H6V15.4978C6.00004 15.3713 5.96806 15.2468 5.90702 15.1359C5.84599 15.025 5.75789 14.9314 5.65093 14.8637C5.54397 14.7961 5.42164 14.7566 5.29531 14.749C5.16898 14.7413 5.04277 14.7658 4.92844 14.82C4.64265 14.9552 4.32734 15.0159 4.0118 14.9965C3.69627 14.9771 3.39076 14.8782 3.12367 14.7091C2.85659 14.54 2.63661 14.3061 2.48418 14.0291C2.33175 13.7521 2.25181 13.4411 2.25181 13.125C2.25181 12.8089 2.33175 12.4979 2.48418 12.2209C2.63661 11.944 2.85659 11.7101 3.12367 11.5409C3.39076 11.3718 3.69627 11.2729 4.0118 11.2535C4.32734 11.2342 4.64265 11.2949 4.92844 11.43C5.04277 11.4843 5.16898 11.5087 5.29531 11.5011C5.42164 11.4934 5.54397 11.4539 5.65093 11.3863C5.75789 11.3186 5.84599 11.225 5.90702 11.1141C5.96806 11.0033 6.00004 10.8788 6 10.7522V6.75002H10.3772C10.5037 6.75006 10.6283 6.71807 10.7391 6.65704C10.85 6.596 10.9436 6.50791 11.0113 6.40095C11.0789 6.29399 11.1184 6.17165 11.1261 6.04533C11.1337 5.919 11.1093 5.79279 11.055 5.67845C10.9198 5.39267 10.8591 5.07736 10.8785 4.76182C10.8979 4.44628 10.9968 4.14077 11.1659 3.87369C11.335 3.60661 11.569 3.38663 11.8459 3.23419C12.1229 3.08176 12.4339 3.00183 12.75 3.00183C13.0661 3.00183 13.3771 3.08176 13.6541 3.23419C13.931 3.38663 14.165 3.60661 14.3341 3.87369C14.5032 4.14077 14.6021 4.44628 14.6215 4.76182C14.6409 5.07736 14.5802 5.39267 14.445 5.67845C14.3907 5.79279 14.3663 5.919 14.3739 6.04533C14.3816 6.17165 14.4211 6.29399 14.4887 6.40095C14.5564 6.50791 14.65 6.596 14.7609 6.65704C14.8717 6.71807 14.9963 6.75006 15.1228 6.75002H19.5V9.77158C19.294 9.74798 19.0862 9.74358 18.8794 9.75845C18.0065 9.82026 17.1917 10.2187 16.607 10.8697C16.0222 11.5207 15.7131 12.3734 15.745 13.2479C15.7769 14.1224 16.1471 14.9503 16.7777 15.5571C17.4083 16.1638 18.2499 16.5019 19.125 16.5C19.2503 16.5002 19.3755 16.4933 19.5 16.4794V19.5Z" fill="#E2E0E7"/>
</svg>
