<svg width="25" height="24" viewBox="0 0 25 24" fill="none" xmlns="http://www.w3.org/2000/svg">
<g id="RocketLaunch">
<path id="Vector" d="M21.3194 4.41751C21.2971 4.05182 21.1418 3.7069 20.8828 3.44784C20.6237 3.18878 20.2788 3.03348 19.9131 3.01126C18.7337 2.94095 15.7197 3.04876 13.2184 5.54907L12.7731 6.00001H7.30468C7.10694 5.9989 6.91095 6.03711 6.72812 6.11243C6.54528 6.18776 6.37925 6.29868 6.23968 6.43876L3.02405 9.65626C2.82685 9.85333 2.68847 10.1015 2.62444 10.3728C2.56042 10.6441 2.57328 10.928 2.66159 11.1924C2.7499 11.4568 2.91016 11.6914 3.12438 11.8699C3.3386 12.0483 3.59831 12.1635 3.87436 12.2025L7.48093 12.7059L11.6256 16.8506L12.1291 20.4591C12.1678 20.7351 12.2829 20.9949 12.4615 21.2089C12.6401 21.423 12.875 21.5828 13.1397 21.6703C13.2938 21.7218 13.4553 21.7481 13.6178 21.7481C13.8146 21.7485 14.0095 21.7099 14.1913 21.6346C14.3732 21.5593 14.5383 21.4488 14.6772 21.3094L17.8947 18.0938C18.0348 17.9542 18.1457 17.7882 18.221 17.6053C18.2963 17.4225 18.3345 17.2265 18.3334 17.0288V11.5603L18.7806 11.1131C21.2819 8.61188 21.3897 5.59782 21.3194 4.41751ZM7.30468 7.50001H11.2731L7.56718 11.205L4.08343 10.7194L7.30468 7.50001ZM14.2806 6.61407C15.0013 5.88895 15.8684 5.32595 16.824 4.96268C17.7797 4.59941 18.8018 4.44423 19.8222 4.50751C19.8879 5.52843 19.7343 6.55159 19.3718 7.50823C19.0093 8.46487 18.4461 9.33282 17.7203 10.0538L12.3334 15.4388L8.89468 12L14.2806 6.61407ZM16.8334 17.0288L13.615 20.25L13.1284 16.7653L16.8334 13.0603V17.0288ZM9.88093 17.9194C9.45905 18.8438 8.04811 21 4.08343 21C3.88451 21 3.69375 20.921 3.5531 20.7803C3.41244 20.6397 3.33343 20.4489 3.33343 20.25C3.33343 16.2853 5.48968 14.8744 6.41405 14.4516C6.50368 14.4107 6.60048 14.3879 6.69893 14.3844C6.79737 14.381 6.89554 14.3969 6.98781 14.4314C7.08009 14.4659 7.16468 14.5182 7.23674 14.5853C7.3088 14.6525 7.36693 14.7332 7.4078 14.8228C7.44868 14.9124 7.4715 15.0093 7.47496 15.1077C7.47842 15.2061 7.46246 15.3043 7.42799 15.3966C7.39352 15.4889 7.3412 15.5734 7.27404 15.6455C7.20688 15.7176 7.12618 15.7757 7.03655 15.8166C6.43374 16.0913 5.10343 16.9753 4.86905 19.4644C7.35811 19.23 8.24405 17.8997 8.51686 17.2969C8.55774 17.2073 8.61587 17.1266 8.68793 17.0594C8.75999 16.9922 8.84457 16.9399 8.93685 16.9054C9.02913 16.871 9.12729 16.855 9.22574 16.8585C9.32419 16.8619 9.42099 16.8848 9.51061 16.9256C9.60024 16.9665 9.68094 17.0246 9.7481 17.0967C9.81527 17.1688 9.86758 17.2533 9.90205 17.3456C9.93653 17.4379 9.95249 17.5361 9.94902 17.6345C9.94556 17.733 9.92274 17.8298 9.88186 17.9194H9.88093Z" fill="#E2E0E7"/>
</g>
</svg>
