<svg width="215" height="233" viewBox="0 0 215 233" fill="none" xmlns="http://www.w3.org/2000/svg">
<path d="M101 95.6748C103 -18.9144 116 8.34964 116 95.6748C116 183 162 206 215 233H0C0 233 99 210.264 101 95.6748Z" fill="#2E3048"/>
<path d="M139.955 95.3352C139.66 94.5487 139.365 93.7623 139.115 92.9533C136.185 83.3359 134.527 62.6403 133.482 50.6635C131.075 23.5638 121.695 1.34027 107.204 0.531328V0.351562C92.7138 1.13804 83.3336 23.384 80.9261 50.4612C79.8587 62.4606 78.2234 83.1336 75.2935 92.7511C75.021 93.56 74.7484 94.369 74.4532 95.133C29.3466 118.39 96.2569 121.446 107.204 121.603V121.783C118.152 121.626 185.084 118.57 139.955 95.3127V95.3352Z" fill="#20223A"/>
<path d="M127.918 131.05C131.87 123.963 134.731 113.993 134.731 108.405C134.731 106.997 134.595 105.544 134.368 104.158C133.573 99.2978 130.916 96.0045 127.963 96.0273C127.941 96.0273 127.918 96.0273 127.895 96.0273C124.92 96.0273 122.285 99.2978 121.49 104.158C121.263 105.566 121.127 106.997 121.127 108.405C121.127 113.993 123.989 123.941 127.941 131.05H127.918Z" fill="#C11C79"/>
<path d="M127.918 116.763C130.053 112.925 131.597 107.52 131.597 104.499C131.597 103.727 131.529 102.954 131.415 102.205C130.984 99.5703 129.553 97.7987 127.94 97.7987H127.895C126.282 97.7987 124.852 99.5703 124.42 102.205C124.284 102.954 124.238 103.749 124.238 104.499C124.238 107.52 125.783 112.925 127.918 116.763Z" fill="#FF438B"/>
<path d="M86.3318 132.117C90.2837 125.031 93.1455 115.06 93.1455 109.473C93.1455 108.065 93.0092 106.611 92.7821 105.226C91.9871 100.365 89.3298 97.072 86.3772 97.0947C86.3545 97.0947 86.3318 97.0947 86.3091 97.0947C83.3338 97.0947 80.6992 100.365 79.9042 105.226C79.6771 106.634 79.5408 108.065 79.5408 109.473C79.5408 115.06 82.4026 125.008 86.3545 132.117H86.3318Z" fill="#C11C79"/>
<path d="M86.3318 116.763C88.4668 112.925 90.0112 107.52 90.0112 104.499C90.0112 103.727 89.943 102.954 89.8068 102.205C89.3752 99.5703 87.9444 97.7988 86.3318 97.7988C86.3318 97.7988 86.3091 97.7988 86.2864 97.7988C84.6738 97.7988 83.2429 99.5703 82.8114 102.205C82.6751 102.954 82.607 103.749 82.607 104.499C82.607 107.52 84.1514 112.925 86.2864 116.763H86.3318Z" fill="#FF438B"/>
<path d="M107.113 151.536C113.427 141.111 117.993 126.507 117.993 118.308C117.993 116.219 117.788 114.106 117.425 112.062C116.13 104.931 111.906 100.093 107.159 100.116C107.113 100.116 107.091 100.116 107.045 100.116C102.298 100.093 98.074 104.908 96.7794 112.062C96.416 114.106 96.2115 116.219 96.2115 118.308C96.2115 126.507 100.777 141.134 107.091 151.536H107.113Z" fill="#C11C79"/>
<path d="M107.113 130.8C109.975 126.235 112.042 119.807 112.042 116.196C112.042 115.287 111.951 114.356 111.792 113.448C111.202 110.313 109.294 108.178 107.159 108.201H107.113C104.979 108.201 103.048 110.313 102.48 113.448C102.321 114.356 102.23 115.287 102.23 116.196C102.23 119.807 104.297 126.212 107.159 130.8H107.113Z" fill="#FF438B"/>
<path d="M107.25 3.65662C93.8722 3.65662 86.1046 31.7744 84.3103 52.4198C83.5381 61.3911 82.4252 77.5396 81.0625 84.9437C80.2676 89.3499 77.5421 96.5724 77.3377 97.1402C65.1412 104.681 62.3022 108.156 63.0063 109.019C63.3242 109.382 67.9802 108.451 73.4085 107.315C77.633 106.43 82.4025 105.566 85.4914 104.022C97.5516 98.026 95.8255 85.4207 97.8923 85.3526C100.254 85.2844 98.8462 89.1455 100.595 93.37C102.934 99.048 109.067 105.407 123.625 103.227C119.582 99.7067 118.719 85.4888 121.263 85.4888C123.171 85.4888 121.581 92.9157 129.485 100.502C136.73 107.474 151.607 109.541 151.72 108.996C152.22 106.248 141.681 100.683 137.048 97.2084C133.846 89.6452 131.506 57.3029 130.961 52.3062C128.418 28.9808 121.104 3.6339 107.272 3.6339L107.25 3.65662Z" fill="#E8E8E8"/>
<path d="M107.25 3.65667C121.082 3.65667 128.418 29.0035 130.939 52.329C131.484 57.303 133.823 89.6679 137.026 97.2311C141.659 100.706 152.175 106.248 151.698 109.019C151.698 109.064 151.539 109.11 151.243 109.11C148.677 109.11 136.003 106.793 129.485 100.524C121.581 92.9158 123.171 85.5116 121.263 85.5116C118.719 85.5116 119.583 99.7295 123.625 103.25C121.627 103.545 119.787 103.681 118.084 103.681C107.454 103.681 102.616 98.2759 100.595 93.37C98.8689 89.1683 100.209 85.3526 97.9377 85.3526C97.9377 85.3526 97.8923 85.3526 97.8696 85.3526C95.8028 85.4207 97.5289 98.026 85.4687 104.022C82.3799 105.567 77.633 106.407 73.3858 107.315C68.7979 108.292 64.7324 109.11 63.4151 109.11C63.188 109.11 63.029 109.087 62.9836 109.019C62.2795 108.178 65.1186 104.681 77.315 97.1403C77.5422 96.5497 80.2449 89.35 81.0398 84.9438C82.3799 77.5396 83.4928 61.4139 84.2877 52.4199C86.1274 31.7517 93.8723 3.65667 107.25 3.65667ZM107.25 0C89.8522 0 82.3572 32.7511 80.6764 52.1019C80.5175 54.0097 80.3358 56.2128 80.1314 58.5976C79.4046 67.5008 78.4961 78.6071 77.474 84.2624C76.9289 87.2604 75.2709 92.1209 74.3397 94.6646C60.0083 103.659 59.5541 106.452 59.3042 107.974C59.0998 109.2 59.4178 110.404 60.19 111.335C60.9622 112.267 62.0524 112.744 63.4379 112.744C64.8233 112.744 67.4579 112.289 74.158 110.858L75.7479 110.518C79.7907 109.677 83.9924 108.814 87.104 107.247C92.9638 104.34 96.0753 100.047 97.8696 96.1636C100.232 100.865 105.751 107.293 118.084 107.293C119.991 107.293 122.035 107.134 124.148 106.816L130.416 105.884C138.093 110.949 148.631 112.721 151.243 112.721C154.65 112.721 155.241 109.927 155.309 109.609C156.081 105.249 151.039 102.001 144.044 97.4809C142.59 96.5498 141.205 95.664 140.092 94.869C137.798 87.8282 135.799 65.2523 135.027 56.5081C134.845 54.3731 134.686 52.7378 134.595 51.8975C132.892 36.3169 126.828 0 107.25 0Z" fill="#20223A"/>
<path d="M98.7097 48.5815C101.281 48.5815 103.366 44.9513 103.366 40.4732C103.366 35.9951 101.281 32.365 98.7097 32.365C96.1383 32.365 94.0537 35.9951 94.0537 40.4732C94.0537 44.9513 96.1383 48.5815 98.7097 48.5815Z" fill="#20223A"/>
<path d="M115.925 48.5815C118.497 48.5815 120.581 44.9513 120.581 40.4732C120.581 35.9951 118.497 32.3649 115.925 32.3649C113.354 32.3649 111.269 35.9951 111.269 40.4732C111.269 44.9513 113.354 48.5815 115.925 48.5815Z" fill="#20223A"/>
<path opacity="0.2" d="M100.618 84.5804C99.8227 88.1916 99.5501 91.0534 101.367 94.9372C102.934 97.8443 105.614 100.706 109.975 102.319C103.366 95.7321 102.707 92.0527 100.64 84.5804H100.618Z" fill="#2E3048"/>
<path opacity="0.2" d="M86.5588 103.409C87.649 99.7066 88.83 92.3933 88.671 88.4641C88.4666 89.8722 84.4693 98.0713 84.4693 98.0713C84.4693 98.0713 80.1312 103 74.3169 107.088C78.3142 106.248 82.6069 105.407 85.4686 103.999C85.8547 103.818 86.2181 103.613 86.5588 103.409Z" fill="#2E3048"/>
<path opacity="0.2" d="M122.467 83.0585C122.467 85.8294 122.785 91.1895 125.351 95.3686C126.328 97.0039 127.645 98.7527 129.462 100.502C134.845 105.68 144.452 108.156 149.063 108.86C132.596 100.706 127.395 93.8469 122.467 83.0585Z" fill="#2E3048"/>
<path d="M107.613 56.8487C108.679 56.8487 109.543 55.7505 109.543 54.3958C109.543 53.0411 108.679 51.9429 107.613 51.9429C106.547 51.9429 105.682 53.0411 105.682 54.3958C105.682 55.7505 106.547 56.8487 107.613 56.8487Z" fill="#20223A"/>
<path d="M120.764 13.8642C117.198 7.52732 112.724 3.50716 107.204 3.50716C102.071 3.50716 92.514 9.11714 86.8358 36.3724C93.6496 23.8804 99.3278 9.11714 107.568 10.0939C112.247 10.0939 116.653 11.4339 120.741 13.8415L120.764 13.8642Z" fill="#C3C3C8"/>
</svg>
